<svg xmlns="http://www.w3.org/2000/svg" xmlns:xlink="http://www.w3.org/1999/xlink" width="500" zoomAndPan="magnify" viewBox="0 0 375 374.999991" height="500" preserveAspectRatio="xMidYMid meet" version="1.0"><defs><g/><clipPath id="d8d5c8e6f6"><path d="M 65 156.570312 L 68 156.570312 L 68 166 L 65 166 Z M 65 156.570312 " clip-rule="nonzero"/></clipPath><clipPath id="6def0ae350"><path d="M 86.589844 184.371094 L 95.996094 184.371094 L 95.996094 186.953125 L 86.589844 186.953125 Z M 86.589844 184.371094 " clip-rule="nonzero"/></clipPath><clipPath id="e8fac52139"><path d="M 37.5 184 L 47 184 L 47 187 L 37.5 187 Z M 37.5 184 " clip-rule="nonzero"/></clipPath><clipPath id="0f4efd4911"><path d="M 60 214 L 74 214 L 74 218.070312 L 60 218.070312 Z M 60 214 " clip-rule="nonzero"/></clipPath></defs><rect x="-37.5" width="450" fill="#ffffff" y="-37.499999" height="449.999989" fill-opacity="1"/><rect x="-37.5" width="450" fill="#000000" y="-37.499999" height="449.999989" fill-opacity="1"/><path fill="#ffffff" d="M 76.785156 193.355469 C 73.214844 197.660156 73.214844 201.332031 73.214844 201.332031 L 73.214844 203.824219 L 60.28125 203.824219 L 60.28125 201.332031 C 60.28125 201.332031 60.28125 197.660156 56.710938 193.355469 C 56.710938 193.355469 52.292969 188.234375 54.785156 181.59375 C 57.210938 175.128906 62.878906 173.089844 66.460938 173.09375 C 66.558594 173.09375 66.652344 173.09375 66.75 173.097656 C 66.84375 173.09375 66.9375 173.09375 67.035156 173.09375 C 70.617188 173.09375 76.285156 175.128906 78.710938 181.59375 C 81.203125 188.234375 76.785156 193.355469 76.785156 193.355469 Z M 81.820312 186.339844 C 81.902344 184.457031 81.601562 182.585938 80.921875 180.773438 C 80.253906 178.996094 79.332031 177.402344 78.175781 176.03125 C 77.136719 174.800781 75.914062 173.753906 74.539062 172.917969 C 73.332031 172.183594 72.023438 171.621094 70.65625 171.25 C 69.445312 170.921875 68.195312 170.746094 67.035156 170.746094 C 66.941406 170.746094 66.84375 170.75 66.75 170.75 C 66.652344 170.75 66.554688 170.746094 66.460938 170.746094 C 65.300781 170.746094 64.050781 170.921875 62.84375 171.25 C 61.472656 171.621094 60.167969 172.183594 58.957031 172.917969 C 57.582031 173.753906 56.359375 174.800781 55.320312 176.03125 C 54.167969 177.402344 53.242188 178.996094 52.574219 180.773438 C 51.894531 182.585938 51.59375 184.457031 51.675781 186.339844 C 51.746094 187.835938 52.054688 189.332031 52.601562 190.785156 C 53.484375 193.125 54.6875 194.605469 54.898438 194.859375 C 56.488281 196.78125 57.230469 198.519531 57.574219 199.640625 C 57.886719 200.664062 57.921875 201.328125 57.921875 201.332031 L 57.921875 204.488281 C 57.921875 205.414062 58.675781 206.167969 59.613281 206.167969 L 73.886719 206.167969 C 74.820312 206.167969 75.578125 205.414062 75.578125 204.488281 L 75.578125 201.355469 C 75.582031 201.277344 75.621094 200.546875 75.984375 199.441406 C 76.335938 198.363281 77.078125 196.695312 78.597656 194.859375 C 78.8125 194.605469 80.015625 193.125 80.894531 190.785156 C 81.441406 189.332031 81.753906 187.835938 81.820312 186.339844 " fill-opacity="1" fill-rule="nonzero"/><g clip-path="url(#d8d5c8e6f6)"><path fill="#ffffff" d="M 67.929688 157.78125 C 67.929688 157.132812 67.398438 156.609375 66.75 156.609375 C 66.097656 156.609375 65.566406 157.132812 65.566406 157.78125 L 65.566406 165.949219 L 67.929688 165.949219 L 67.929688 157.78125 " fill-opacity="1" fill-rule="nonzero"/></g><g clip-path="url(#6def0ae350)"><path fill="#ffffff" d="M 94.816406 184.492188 L 86.59375 184.492188 L 86.59375 186.839844 L 94.816406 186.839844 C 95.46875 186.839844 95.996094 186.3125 95.996094 185.667969 C 95.996094 185.019531 95.46875 184.492188 94.816406 184.492188 " fill-opacity="1" fill-rule="nonzero"/></g><path fill="#ffffff" d="M 81.617188 198.78125 L 79.945312 200.4375 L 85.761719 206.214844 C 86.222656 206.671875 86.96875 206.671875 87.429688 206.214844 C 87.890625 205.757812 87.890625 205.015625 87.429688 204.554688 L 81.617188 198.78125 " fill-opacity="1" fill-rule="nonzero"/><path fill="#ffffff" d="M 87.429688 166.777344 C 87.890625 166.320312 87.890625 165.578125 87.429688 165.117188 C 86.96875 164.660156 86.222656 164.660156 85.761719 165.117188 L 79.945312 170.894531 L 81.617188 172.554688 L 87.429688 166.777344 " fill-opacity="1" fill-rule="nonzero"/><g clip-path="url(#e8fac52139)"><path fill="#ffffff" d="M 46.902344 184.492188 L 38.679688 184.492188 C 38.027344 184.492188 37.5 185.019531 37.5 185.667969 C 37.5 186.3125 38.027344 186.839844 38.679688 186.839844 L 46.902344 186.839844 L 46.902344 184.492188 " fill-opacity="1" fill-rule="nonzero"/></g><path fill="#ffffff" d="M 46.066406 204.554688 C 45.605469 205.015625 45.605469 205.757812 46.066406 206.214844 C 46.527344 206.671875 47.273438 206.671875 47.734375 206.214844 L 53.550781 200.4375 L 51.882812 198.78125 L 46.066406 204.554688 " fill-opacity="1" fill-rule="nonzero"/><path fill="#ffffff" d="M 51.882812 172.554688 L 53.550781 170.894531 L 47.734375 165.117188 C 47.273438 164.660156 46.527344 164.660156 46.066406 165.117188 C 45.605469 165.578125 45.605469 166.320312 46.066406 166.777344 L 51.882812 172.554688 " fill-opacity="1" fill-rule="nonzero"/><path fill="#ffffff" d="M 66.519531 176.089844 C 66.472656 175.40625 65.84375 174.914062 65.164062 175.027344 C 62.007812 175.550781 60.050781 177.121094 58.933594 178.429688 C 58.339844 179.128906 57.917969 179.816406 57.632812 180.382812 C 57.300781 181.039062 57.65625 181.828125 58.367188 182.019531 L 58.398438 182.027344 C 58.929688 182.171875 59.492188 181.921875 59.738281 181.433594 C 60.375 180.179688 61.984375 177.9375 65.546875 177.34375 C 66.136719 177.242188 66.558594 176.71875 66.519531 176.125 L 66.519531 176.089844 " fill-opacity="1" fill-rule="nonzero"/><path fill="#ffffff" d="M 73.359375 207.265625 L 60.058594 207.265625 C 59.429688 207.265625 58.921875 207.789062 58.921875 208.4375 C 58.921875 209.085938 59.429688 209.609375 60.058594 209.609375 L 73.359375 209.609375 C 73.988281 209.609375 74.496094 209.085938 74.496094 208.4375 C 74.496094 207.789062 73.988281 207.265625 73.359375 207.265625 " fill-opacity="1" fill-rule="nonzero"/><path fill="#ffffff" d="M 73.359375 210.707031 L 60.058594 210.707031 C 59.429688 210.707031 58.921875 211.234375 58.921875 211.878906 C 58.921875 212.527344 59.429688 213.054688 60.058594 213.054688 L 73.359375 213.054688 C 73.988281 213.054688 74.496094 212.527344 74.496094 211.878906 C 74.496094 211.234375 73.988281 210.707031 73.359375 210.707031 " fill-opacity="1" fill-rule="nonzero"/><g clip-path="url(#0f4efd4911)"><path fill="#ffffff" d="M 72.699219 214.148438 L 60.71875 214.148438 C 60.367188 214.148438 60.191406 214.570312 60.441406 214.816406 L 62.425781 216.789062 C 63.007812 217.363281 63.753906 217.75 64.5625 217.875 C 65.117188 217.964844 65.832031 218.03125 66.710938 218.03125 C 67.585938 218.03125 68.300781 217.964844 68.855469 217.875 C 69.664062 217.75 70.410156 217.363281 70.992188 216.789062 L 72.976562 214.816406 C 73.226562 214.570312 73.050781 214.148438 72.699219 214.148438 " fill-opacity="1" fill-rule="nonzero"/></g><g fill="#ffffff" fill-opacity="1"><g transform="translate(120.476306, 201.369644)"><g><path d="M 10.78125 0.421875 C 8.976562 0.421875 7.382812 0.113281 6 -0.5 C 4.625 -1.125 3.535156 -2.015625 2.734375 -3.171875 C 1.941406 -4.335938 1.535156 -5.75 1.515625 -7.40625 L 6.25 -7.40625 C 6.289062 -6.257812 6.703125 -5.289062 7.484375 -4.5 C 8.273438 -3.71875 9.363281 -3.328125 10.75 -3.328125 C 11.9375 -3.328125 12.878906 -3.613281 13.578125 -4.1875 C 14.285156 -4.769531 14.640625 -5.539062 14.640625 -6.5 C 14.640625 -7.5 14.328125 -8.28125 13.703125 -8.84375 C 13.085938 -9.40625 12.265625 -9.863281 11.234375 -10.21875 C 10.203125 -10.570312 9.101562 -10.945312 7.9375 -11.34375 C 6.039062 -12 4.59375 -12.835938 3.59375 -13.859375 C 2.601562 -14.890625 2.109375 -16.257812 2.109375 -17.96875 C 2.085938 -19.425781 2.429688 -20.675781 3.140625 -21.71875 C 3.859375 -22.757812 4.835938 -23.566406 6.078125 -24.140625 C 7.316406 -24.710938 8.742188 -25 10.359375 -25 C 11.992188 -25 13.4375 -24.707031 14.6875 -24.125 C 15.945312 -23.539062 16.929688 -22.71875 17.640625 -21.65625 C 18.359375 -20.601562 18.738281 -19.351562 18.78125 -17.90625 L 13.96875 -17.90625 C 13.945312 -18.769531 13.613281 -19.535156 12.96875 -20.203125 C 12.320312 -20.867188 11.425781 -21.203125 10.28125 -21.203125 C 9.300781 -21.222656 8.476562 -20.984375 7.8125 -20.484375 C 7.144531 -19.984375 6.8125 -19.253906 6.8125 -18.296875 C 6.8125 -17.472656 7.066406 -16.820312 7.578125 -16.34375 C 8.097656 -15.863281 8.800781 -15.457031 9.6875 -15.125 C 10.582031 -14.800781 11.601562 -14.453125 12.75 -14.078125 C 13.96875 -13.660156 15.078125 -13.171875 16.078125 -12.609375 C 17.085938 -12.046875 17.894531 -11.300781 18.5 -10.375 C 19.113281 -9.445312 19.421875 -8.257812 19.421875 -6.8125 C 19.421875 -5.519531 19.09375 -4.320312 18.4375 -3.21875 C 17.78125 -2.125 16.804688 -1.242188 15.515625 -0.578125 C 14.234375 0.0859375 12.65625 0.421875 10.78125 0.421875 Z M 10.78125 0.421875 "/></g></g></g><g fill="#ffffff" fill-opacity="1"><g transform="translate(141.433604, 201.369644)"><g><path d="M 10.046875 0 C 8.210938 0 6.742188 -0.441406 5.640625 -1.328125 C 4.546875 -2.222656 4 -3.804688 4 -6.078125 L 4 -13.65625 L 1.015625 -13.65625 L 1.015625 -17.421875 L 4 -17.421875 L 4.53125 -22.078125 L 8.5 -22.078125 L 8.5 -17.421875 L 13.203125 -17.421875 L 13.203125 -13.65625 L 8.5 -13.65625 L 8.5 -6.03125 C 8.5 -5.195312 8.675781 -4.617188 9.03125 -4.296875 C 9.394531 -3.984375 10.023438 -3.828125 10.921875 -3.828125 L 13.09375 -3.828125 L 13.09375 0 Z M 10.046875 0 "/></g></g></g><g fill="#ffffff" fill-opacity="1"><g transform="translate(156.212543, 201.369644)"><g><path d="M 8.8125 0.421875 C 6.632812 0.421875 4.953125 -0.253906 3.765625 -1.609375 C 2.585938 -2.972656 2 -4.960938 2 -7.578125 L 2 -17.421875 L 6.453125 -17.421875 L 6.453125 -8 C 6.453125 -6.507812 6.753906 -5.363281 7.359375 -4.5625 C 7.972656 -3.769531 8.9375 -3.375 10.25 -3.375 C 11.488281 -3.375 12.507812 -3.816406 13.3125 -4.703125 C 14.125 -5.585938 14.53125 -6.828125 14.53125 -8.421875 L 14.53125 -17.421875 L 19.03125 -17.421875 L 19.03125 0 L 15.0625 0 L 14.703125 -2.953125 C 14.171875 -1.921875 13.394531 -1.097656 12.375 -0.484375 C 11.351562 0.117188 10.164062 0.421875 8.8125 0.421875 Z M 8.8125 0.421875 "/></g></g></g><g fill="#ffffff" fill-opacity="1"><g transform="translate(177.555999, 201.369644)"><g><path d="M 10.28125 0.421875 C 8.644531 0.421875 7.179688 0.0234375 5.890625 -0.765625 C 4.609375 -1.566406 3.59375 -2.65625 2.84375 -4.03125 C 2.09375 -5.414062 1.71875 -6.988281 1.71875 -8.75 C 1.71875 -10.5 2.09375 -12.054688 2.84375 -13.421875 C 3.59375 -14.796875 4.609375 -15.875 5.890625 -16.65625 C 7.179688 -17.4375 8.644531 -17.828125 10.28125 -17.828125 C 11.59375 -17.828125 12.738281 -17.582031 13.71875 -17.09375 C 14.707031 -16.601562 15.503906 -15.914062 16.109375 -15.03125 L 16.109375 -25.28125 L 20.609375 -25.28125 L 20.609375 0 L 16.609375 0 L 16.109375 -2.5 C 15.546875 -1.71875 14.800781 -1.035156 13.875 -0.453125 C 12.957031 0.128906 11.757812 0.421875 10.28125 0.421875 Z M 11.234375 -3.515625 C 12.679688 -3.515625 13.867188 -4 14.796875 -4.96875 C 15.722656 -5.9375 16.1875 -7.179688 16.1875 -8.703125 C 16.1875 -10.222656 15.722656 -11.46875 14.796875 -12.4375 C 13.867188 -13.414062 12.679688 -13.90625 11.234375 -13.90625 C 9.804688 -13.90625 8.625 -13.425781 7.6875 -12.46875 C 6.75 -11.507812 6.28125 -10.269531 6.28125 -8.75 C 6.28125 -7.21875 6.75 -5.960938 7.6875 -4.984375 C 8.625 -4.003906 9.804688 -3.515625 11.234375 -3.515625 Z M 11.234375 -3.515625 "/></g></g></g><g fill="#ffffff" fill-opacity="1"><g transform="translate(200.444042, 201.369644)"><g><path d="M 10.75 0.421875 C 8.988281 0.421875 7.425781 0.046875 6.0625 -0.703125 C 4.707031 -1.453125 3.644531 -2.503906 2.875 -3.859375 C 2.101562 -5.210938 1.71875 -6.78125 1.71875 -8.5625 C 1.71875 -10.363281 2.097656 -11.96875 2.859375 -13.375 C 3.617188 -14.78125 4.671875 -15.875 6.015625 -16.65625 C 7.367188 -17.4375 8.957031 -17.828125 10.78125 -17.828125 C 12.488281 -17.828125 14 -17.453125 15.3125 -16.703125 C 16.625 -15.960938 17.644531 -14.941406 18.375 -13.640625 C 19.113281 -12.335938 19.484375 -10.890625 19.484375 -9.296875 C 19.484375 -9.046875 19.476562 -8.78125 19.46875 -8.5 C 19.457031 -8.21875 19.441406 -7.925781 19.421875 -7.625 L 6.171875 -7.625 C 6.265625 -6.257812 6.738281 -5.191406 7.59375 -4.421875 C 8.445312 -3.648438 9.484375 -3.265625 10.703125 -3.265625 C 11.617188 -3.265625 12.382812 -3.46875 13 -3.875 C 13.625 -4.289062 14.085938 -4.828125 14.390625 -5.484375 L 18.953125 -5.484375 C 18.628906 -4.378906 18.085938 -3.375 17.328125 -2.46875 C 16.566406 -1.570312 15.628906 -0.863281 14.515625 -0.34375 C 13.398438 0.164062 12.144531 0.421875 10.75 0.421875 Z M 10.78125 -14.1875 C 9.675781 -14.1875 8.703125 -13.875 7.859375 -13.25 C 7.015625 -12.632812 6.476562 -11.691406 6.25 -10.421875 L 14.921875 -10.421875 C 14.847656 -11.566406 14.425781 -12.476562 13.65625 -13.15625 C 12.882812 -13.84375 11.925781 -14.1875 10.78125 -14.1875 Z M 10.78125 -14.1875 "/></g></g></g><g fill="#ffffff" fill-opacity="1"><g transform="translate(221.436447, 201.369644)"><g><path d="M 2.28125 0 L 2.28125 -17.421875 L 6.25 -17.421875 L 6.59375 -14.46875 C 7.132812 -15.5 7.914062 -16.316406 8.9375 -16.921875 C 9.957031 -17.523438 11.15625 -17.828125 12.53125 -17.828125 C 14.6875 -17.828125 16.359375 -17.148438 17.546875 -15.796875 C 18.742188 -14.441406 19.34375 -12.453125 19.34375 -9.828125 L 19.34375 0 L 14.84375 0 L 14.84375 -9.40625 C 14.84375 -10.90625 14.539062 -12.050781 13.9375 -12.84375 C 13.332031 -13.644531 12.382812 -14.046875 11.09375 -14.046875 C 9.832031 -14.046875 8.796875 -13.597656 7.984375 -12.703125 C 7.179688 -11.816406 6.78125 -10.578125 6.78125 -8.984375 L 6.78125 0 Z M 2.28125 0 "/></g></g></g><g fill="#ffffff" fill-opacity="1"><g transform="translate(242.779903, 201.369644)"><g><path d="M 10.046875 0 C 8.210938 0 6.742188 -0.441406 5.640625 -1.328125 C 4.546875 -2.222656 4 -3.804688 4 -6.078125 L 4 -13.65625 L 1.015625 -13.65625 L 1.015625 -17.421875 L 4 -17.421875 L 4.53125 -22.078125 L 8.5 -22.078125 L 8.5 -17.421875 L 13.203125 -17.421875 L 13.203125 -13.65625 L 8.5 -13.65625 L 8.5 -6.03125 C 8.5 -5.195312 8.675781 -4.617188 9.03125 -4.296875 C 9.394531 -3.984375 10.023438 -3.828125 10.921875 -3.828125 L 13.09375 -3.828125 L 13.09375 0 Z M 10.046875 0 "/></g></g></g><g fill="#ffffff" fill-opacity="1"><g transform="translate(268.397828, 201.366011)"><g><path d="M 2.390625 0 L 2.390625 -24.609375 L 6.890625 -24.609375 L 6.890625 -14.375 L 17.9375 -14.375 L 17.9375 -24.609375 L 22.4375 -24.609375 L 22.4375 0 L 17.9375 0 L 17.9375 -10.71875 L 6.890625 -10.71875 L 6.890625 0 Z M 2.390625 0 "/></g></g></g><g fill="#ffffff" fill-opacity="1"><g transform="translate(293.205401, 201.366011)"><g><path d="M 8.828125 0.421875 C 6.648438 0.421875 4.96875 -0.253906 3.78125 -1.609375 C 2.59375 -2.972656 2 -4.96875 2 -7.59375 L 2 -17.4375 L 6.46875 -17.4375 L 6.46875 -8.015625 C 6.46875 -6.515625 6.769531 -5.363281 7.375 -4.5625 C 7.988281 -3.769531 8.953125 -3.375 10.265625 -3.375 C 11.503906 -3.375 12.53125 -3.816406 13.34375 -4.703125 C 14.15625 -5.597656 14.5625 -6.84375 14.5625 -8.4375 L 14.5625 -17.4375 L 19.0625 -17.4375 L 19.0625 0 L 15.078125 0 L 14.734375 -2.953125 C 14.191406 -1.921875 13.410156 -1.097656 12.390625 -0.484375 C 11.367188 0.117188 10.179688 0.421875 8.828125 0.421875 Z M 8.828125 0.421875 "/></g></g></g><g fill="#ffffff" fill-opacity="1"><g transform="translate(314.569429, 201.366011)"><g><path d="M 12.625 0.421875 C 11.3125 0.421875 10.160156 0.175781 9.171875 -0.3125 C 8.191406 -0.8125 7.394531 -1.503906 6.78125 -2.390625 L 6.296875 0 L 2.28125 0 L 2.28125 -25.3125 L 6.78125 -25.3125 L 6.78125 -14.9375 C 7.34375 -15.71875 8.085938 -16.398438 9.015625 -16.984375 C 9.941406 -17.566406 11.144531 -17.859375 12.625 -17.859375 C 14.257812 -17.859375 15.722656 -17.457031 17.015625 -16.65625 C 18.304688 -15.863281 19.328125 -14.773438 20.078125 -13.390625 C 20.828125 -12.015625 21.203125 -10.445312 21.203125 -8.6875 C 21.203125 -6.925781 20.828125 -5.359375 20.078125 -3.984375 C 19.328125 -2.617188 18.304688 -1.539062 17.015625 -0.75 C 15.722656 0.03125 14.257812 0.421875 12.625 0.421875 Z M 11.671875 -3.515625 C 13.097656 -3.515625 14.28125 -3.992188 15.21875 -4.953125 C 16.15625 -5.921875 16.625 -7.164062 16.625 -8.6875 C 16.625 -10.207031 16.15625 -11.457031 15.21875 -12.4375 C 14.28125 -13.425781 13.097656 -13.921875 11.671875 -13.921875 C 10.222656 -13.921875 9.035156 -13.429688 8.109375 -12.453125 C 7.179688 -11.484375 6.71875 -10.238281 6.71875 -8.71875 C 6.71875 -7.195312 7.179688 -5.945312 8.109375 -4.96875 C 9.035156 -4 10.222656 -3.515625 11.671875 -3.515625 Z M 11.671875 -3.515625 "/></g></g></g><path stroke-linecap="butt" transform="matrix(0.00000000131325, -0.752437, 0.75, 0.000000001309, 106.702958, 218.426119)" fill="none" stroke-linejoin="miter" d="M 0.000449219 2.000222 L 81.74521 2.000222 " stroke="#ffffff" stroke-width="4" stroke-opacity="1" stroke-miterlimit="4"/></svg>