<svg xmlns="http://www.w3.org/2000/svg" xmlns:xlink="http://www.w3.org/1999/xlink" width="500" zoomAndPan="magnify" viewBox="0 0 375 374.999991" height="500" preserveAspectRatio="xMidYMid meet" version="1.0"><defs><g/><clipPath id="1df3345930"><path d="M 98 120.136719 L 104 120.136719 L 104 141 L 98 141 Z M 98 120.136719 " clip-rule="nonzero"/></clipPath><clipPath id="5c47da3b3c"><path d="M 144.492188 181.164062 L 164.992188 181.164062 L 164.992188 186.828125 L 144.492188 186.828125 Z M 144.492188 181.164062 " clip-rule="nonzero"/></clipPath><clipPath id="945d0331de"><path d="M 37.5 181 L 58 181 L 58 187 L 37.5 187 Z M 37.5 181 " clip-rule="nonzero"/></clipPath><clipPath id="91ca4af237"><path d="M 87 246 L 116 246 L 116 255.136719 L 87 255.136719 Z M 87 246 " clip-rule="nonzero"/></clipPath></defs><rect x="-37.5" width="450" fill="#ffffff" y="-37.499999" height="449.999989" fill-opacity="1"/><rect x="-37.5" width="450" fill="#000000" y="-37.499999" height="449.999989" fill-opacity="1"/><path fill="#ffffff" d="M 123.121094 200.882812 C 115.34375 210.332031 115.34375 218.394531 115.34375 218.394531 L 115.34375 223.863281 L 87.148438 223.863281 L 87.148438 218.394531 C 87.148438 218.394531 87.148438 210.332031 79.371094 200.882812 C 79.371094 200.882812 69.742188 189.644531 75.175781 175.066406 C 80.460938 160.875 92.8125 156.402344 100.617188 156.402344 C 100.832031 156.402344 101.039062 156.40625 101.246094 156.414062 C 101.453125 156.40625 101.660156 156.402344 101.875 156.402344 C 109.679688 156.402344 122.03125 160.878906 127.320312 175.066406 C 132.75 189.644531 123.121094 200.882812 123.121094 200.882812 Z M 134.09375 185.480469 C 134.277344 181.351562 133.621094 177.246094 132.136719 173.269531 C 130.683594 169.363281 128.671875 165.863281 126.152344 162.855469 C 123.890625 160.160156 121.222656 157.859375 118.226562 156.023438 C 115.589844 154.410156 112.742188 153.179688 109.757812 152.359375 C 107.125 151.640625 104.398438 151.257812 101.875 151.257812 C 101.664062 151.257812 101.453125 151.257812 101.246094 151.265625 C 101.039062 151.257812 100.828125 151.257812 100.617188 151.257812 C 98.09375 151.257812 95.367188 151.640625 92.734375 152.359375 C 89.75 153.179688 86.902344 154.410156 84.265625 156.023438 C 81.269531 157.859375 78.601562 160.15625 76.339844 162.855469 C 73.824219 165.863281 71.808594 169.363281 70.355469 173.269531 C 68.871094 177.246094 68.214844 181.351562 68.398438 185.480469 C 68.546875 188.765625 69.226562 192.046875 70.417969 195.242188 C 72.332031 200.378906 74.957031 203.628906 75.421875 204.183594 C 78.886719 208.398438 80.507812 212.21875 81.253906 214.683594 C 81.9375 216.921875 82.003906 218.382812 82.003906 218.394531 L 82.003906 225.320312 C 82.003906 227.355469 83.65625 229.007812 85.691406 229.007812 L 116.800781 229.007812 C 118.839844 229.007812 120.488281 227.355469 120.488281 225.320312 L 120.488281 218.445312 C 120.496094 218.273438 120.585938 216.671875 121.378906 214.238281 C 122.144531 211.875 123.757812 208.214844 127.070312 204.183594 C 127.535156 203.628906 130.160156 200.378906 132.078125 195.242188 C 133.269531 192.046875 133.945312 188.765625 134.09375 185.480469 " fill-opacity="1" fill-rule="nonzero"/><g clip-path="url(#1df3345930)"><path fill="#ffffff" d="M 103.816406 122.792969 C 103.816406 121.371094 102.667969 120.21875 101.246094 120.21875 C 99.824219 120.21875 98.675781 121.371094 98.675781 122.792969 L 98.675781 140.726562 L 103.816406 140.726562 L 103.816406 122.792969 " fill-opacity="1" fill-rule="nonzero"/></g><g clip-path="url(#5c47da3b3c)"><path fill="#ffffff" d="M 162.421875 181.429688 L 144.5 181.429688 L 144.5 186.578125 L 162.421875 186.578125 C 163.839844 186.578125 164.992188 185.425781 164.992188 184.007812 C 164.992188 182.582031 163.839844 181.429688 162.421875 181.429688 " fill-opacity="1" fill-rule="nonzero"/></g><path fill="#ffffff" d="M 133.648438 212.789062 L 130.011719 216.429688 L 142.683594 229.109375 C 143.6875 230.113281 145.316406 230.113281 146.320312 229.109375 C 147.328125 228.101562 147.328125 226.472656 146.320312 225.46875 L 133.648438 212.789062 " fill-opacity="1" fill-rule="nonzero"/><path fill="#ffffff" d="M 146.320312 142.542969 C 147.328125 141.535156 147.328125 139.90625 146.320312 138.902344 C 145.316406 137.898438 143.6875 137.898438 142.683594 138.902344 L 130.011719 151.582031 L 133.648438 155.222656 L 146.320312 142.542969 " fill-opacity="1" fill-rule="nonzero"/><g clip-path="url(#945d0331de)"><path fill="#ffffff" d="M 57.992188 181.429688 L 40.070312 181.429688 C 38.652344 181.429688 37.5 182.582031 37.5 184.007812 C 37.5 185.425781 38.652344 186.578125 40.070312 186.578125 L 57.992188 186.578125 L 57.992188 181.429688 " fill-opacity="1" fill-rule="nonzero"/></g><path fill="#ffffff" d="M 56.171875 225.46875 C 55.167969 226.472656 55.167969 228.101562 56.171875 229.109375 C 57.175781 230.113281 58.804688 230.113281 59.808594 229.109375 L 72.480469 216.429688 L 68.84375 212.789062 L 56.171875 225.46875 " fill-opacity="1" fill-rule="nonzero"/><path fill="#ffffff" d="M 68.84375 155.222656 L 72.480469 151.582031 L 59.808594 138.902344 C 58.804688 137.898438 57.175781 137.898438 56.171875 138.902344 C 55.167969 139.90625 55.167969 141.535156 56.171875 142.542969 L 68.84375 155.222656 " fill-opacity="1" fill-rule="nonzero"/><path fill="#ffffff" d="M 100.742188 162.980469 C 100.644531 161.484375 99.269531 160.40625 97.789062 160.652344 C 90.910156 161.800781 86.652344 165.25 84.21875 168.121094 C 82.917969 169.652344 82.003906 171.167969 81.378906 172.40625 C 80.65625 173.84375 81.425781 175.582031 82.980469 176 L 83.050781 176.019531 C 84.207031 176.332031 85.425781 175.789062 85.96875 174.714844 C 87.351562 171.964844 90.867188 167.035156 98.625 165.734375 C 99.914062 165.515625 100.835938 164.367188 100.75 163.0625 L 100.742188 162.980469 " fill-opacity="1" fill-rule="nonzero"/><path fill="#ffffff" d="M 115.652344 231.417969 L 86.667969 231.417969 C 85.296875 231.417969 84.1875 232.570312 84.1875 233.988281 C 84.1875 235.410156 85.296875 236.5625 86.667969 236.5625 L 115.652344 236.5625 C 117.023438 236.5625 118.136719 235.410156 118.136719 233.988281 C 118.136719 232.570312 117.023438 231.417969 115.652344 231.417969 " fill-opacity="1" fill-rule="nonzero"/><path fill="#ffffff" d="M 115.652344 238.972656 L 86.667969 238.972656 C 85.296875 238.972656 84.1875 240.125 84.1875 241.546875 C 84.1875 242.96875 85.296875 244.121094 86.667969 244.121094 L 115.652344 244.121094 C 117.023438 244.121094 118.136719 242.96875 118.136719 241.546875 C 118.136719 240.125 117.023438 238.972656 115.652344 238.972656 " fill-opacity="1" fill-rule="nonzero"/><g clip-path="url(#91ca4af237)"><path fill="#ffffff" d="M 114.214844 246.527344 L 88.105469 246.527344 C 87.339844 246.527344 86.960938 247.449219 87.5 247.988281 L 91.824219 252.320312 C 93.089844 253.585938 94.71875 254.425781 96.484375 254.707031 C 97.691406 254.898438 99.253906 255.050781 101.160156 255.050781 C 103.070312 255.050781 104.628906 254.898438 105.835938 254.707031 C 107.601562 254.425781 109.230469 253.585938 110.496094 252.320312 L 114.820312 247.988281 C 115.363281 247.449219 114.980469 246.527344 114.214844 246.527344 " fill-opacity="1" fill-rule="nonzero"/></g><g fill="#ffffff" fill-opacity="1"><g transform="translate(210.181587, 218.210012)"><g><path d="M 30 1.171875 C 24.976562 1.171875 20.546875 0.3125 16.703125 -1.40625 C 12.859375 -3.132812 9.828125 -5.609375 7.609375 -8.828125 C 5.398438 -12.054688 4.265625 -15.984375 4.203125 -20.609375 L 17.390625 -20.609375 C 17.523438 -17.421875 18.679688 -14.734375 20.859375 -12.546875 C 23.035156 -10.367188 26.046875 -9.28125 29.890625 -9.28125 C 33.210938 -9.28125 35.851562 -10.078125 37.8125 -11.671875 C 39.769531 -13.265625 40.75 -15.398438 40.75 -18.078125 C 40.75 -20.878906 39.882812 -23.0625 38.15625 -24.625 C 36.425781 -26.1875 34.128906 -27.453125 31.265625 -28.421875 C 28.398438 -29.398438 25.335938 -30.445312 22.078125 -31.5625 C 16.804688 -33.382812 12.785156 -35.726562 10.015625 -38.59375 C 7.242188 -41.457031 5.859375 -45.269531 5.859375 -50.03125 C 5.796875 -54.0625 6.753906 -57.523438 8.734375 -60.421875 C 10.722656 -63.328125 13.441406 -65.578125 16.890625 -67.171875 C 20.347656 -68.765625 24.328125 -69.5625 28.828125 -69.5625 C 33.378906 -69.5625 37.394531 -68.742188 40.875 -67.109375 C 44.363281 -65.484375 47.101562 -63.207031 49.09375 -60.28125 C 51.082031 -57.351562 52.140625 -53.867188 52.265625 -49.828125 L 38.890625 -49.828125 C 38.816406 -52.234375 37.882812 -54.363281 36.09375 -56.21875 C 34.3125 -58.082031 31.820312 -59.015625 28.625 -59.015625 C 25.894531 -59.078125 23.597656 -58.40625 21.734375 -57 C 19.878906 -55.601562 18.953125 -53.570312 18.953125 -50.90625 C 18.953125 -48.625 19.664062 -46.816406 21.09375 -45.484375 C 22.53125 -44.148438 24.484375 -43.023438 26.953125 -42.109375 C 29.429688 -41.203125 32.269531 -40.222656 35.46875 -39.171875 C 38.851562 -38.003906 41.945312 -36.640625 44.75 -35.078125 C 47.550781 -33.515625 49.796875 -31.445312 51.484375 -28.875 C 53.179688 -26.300781 54.03125 -22.992188 54.03125 -18.953125 C 54.03125 -15.367188 53.117188 -12.046875 51.296875 -8.984375 C 49.472656 -5.921875 46.769531 -3.460938 43.1875 -1.609375 C 39.601562 0.242188 35.207031 1.171875 30 1.171875 Z M 30 1.171875 "/></g></g></g><g fill="#ffffff" fill-opacity="1"><g transform="translate(268.498472, 218.210012)"><g><path d="M 6.640625 0 L 6.640625 -68.390625 L 19.15625 -68.390625 L 19.15625 -39.953125 L 49.828125 -39.953125 L 49.828125 -68.390625 L 62.328125 -68.390625 L 62.328125 0 L 49.828125 0 L 49.828125 -29.796875 L 19.15625 -29.796875 L 19.15625 0 Z M 6.640625 0 "/></g></g></g><path stroke-linecap="butt" transform="matrix(0, -0.750198, 0.75, 0, 183.174249, 254.861234)" fill="none" stroke-linejoin="miter" d="M 0.00247863 6.002043 L 177.960814 6.002043 " stroke="#ffffff" stroke-width="12" stroke-opacity="1" stroke-miterlimit="4"/></svg>