<svg xmlns="http://www.w3.org/2000/svg" xmlns:xlink="http://www.w3.org/1999/xlink" width="411" zoomAndPan="magnify" viewBox="0 0 308.25 63.749997" height="85" preserveAspectRatio="xMidYMid meet" version="1.0"><defs><g/><clipPath id="c6238a70bd"><path d="M 28 0.566406 L 31 0.566406 L 31 10 L 28 10 Z M 28 0.566406 " clip-rule="nonzero"/></clipPath><clipPath id="f1ae773170"><path d="M 49.125 28.261719 L 58.496094 28.261719 L 58.496094 30.832031 L 49.125 30.832031 Z M 49.125 28.261719 " clip-rule="nonzero"/></clipPath><clipPath id="1e1c7ab4bd"><path d="M 0.230469 28 L 10 28 L 10 31 L 0.230469 31 Z M 0.230469 28 " clip-rule="nonzero"/></clipPath><clipPath id="834ba562e4"><path d="M 22 57 L 36 57 L 36 61.828125 L 22 61.828125 Z M 22 57 " clip-rule="nonzero"/></clipPath><clipPath id="4e9063cc98"><path d="M 69 0 L 73 0 L 73 63.5 L 69 63.5 Z M 69 0 " clip-rule="nonzero"/></clipPath></defs><path fill="#ffffff" d="M 39.359375 37.210938 C 35.804688 41.5 35.804688 45.15625 35.804688 45.15625 L 35.804688 47.636719 L 22.917969 47.636719 L 22.917969 45.15625 C 22.917969 45.15625 22.917969 41.5 19.363281 37.210938 C 19.363281 37.210938 14.964844 32.109375 17.445312 25.496094 C 19.863281 19.054688 25.507812 17.023438 29.074219 17.023438 C 29.171875 17.023438 29.269531 17.027344 29.363281 17.03125 C 29.457031 17.027344 29.550781 17.023438 29.648438 17.023438 C 33.21875 17.023438 38.863281 19.054688 41.277344 25.496094 C 43.761719 32.109375 39.359375 37.210938 39.359375 37.210938 Z M 44.375 30.21875 C 44.460938 28.347656 44.160156 26.480469 43.480469 24.679688 C 42.816406 22.90625 41.894531 21.316406 40.746094 19.953125 C 39.710938 18.730469 38.492188 17.683594 37.121094 16.851562 C 35.917969 16.121094 34.617188 15.5625 33.253906 15.191406 C 32.050781 14.863281 30.804688 14.6875 29.648438 14.6875 C 29.554688 14.6875 29.457031 14.691406 29.363281 14.691406 C 29.269531 14.691406 29.171875 14.6875 29.074219 14.6875 C 27.921875 14.6875 26.675781 14.863281 25.472656 15.191406 C 24.109375 15.5625 22.808594 16.121094 21.601562 16.851562 C 20.234375 17.683594 19.015625 18.730469 17.980469 19.953125 C 16.828125 21.316406 15.910156 22.90625 15.242188 24.679688 C 14.566406 26.480469 14.265625 28.347656 14.351562 30.21875 C 14.417969 31.710938 14.726562 33.199219 15.273438 34.648438 C 16.148438 36.980469 17.347656 38.457031 17.558594 38.707031 C 19.144531 40.621094 19.882812 42.351562 20.226562 43.472656 C 20.539062 44.488281 20.570312 45.148438 20.570312 45.15625 L 20.570312 48.296875 C 20.570312 49.222656 21.324219 49.972656 22.253906 49.972656 L 36.472656 49.972656 C 37.402344 49.972656 38.15625 49.222656 38.15625 48.296875 L 38.15625 45.179688 C 38.160156 45.101562 38.199219 44.375 38.5625 43.269531 C 38.914062 42.199219 39.652344 40.535156 41.164062 38.707031 C 41.378906 38.457031 42.578125 36.980469 43.453125 34.648438 C 43.996094 33.199219 44.308594 31.710938 44.375 30.21875 " fill-opacity="1" fill-rule="nonzero"/><g clip-path="url(#c6238a70bd)"><path fill="#ffffff" d="M 30.539062 1.773438 C 30.539062 1.128906 30.011719 0.605469 29.363281 0.605469 C 28.714844 0.605469 28.1875 1.128906 28.1875 1.773438 L 28.1875 9.910156 L 30.539062 9.910156 L 30.539062 1.773438 " fill-opacity="1" fill-rule="nonzero"/></g><g clip-path="url(#f1ae773170)"><path fill="#ffffff" d="M 57.320312 28.382812 L 49.128906 28.382812 L 49.128906 30.71875 L 57.320312 30.71875 C 57.96875 30.71875 58.496094 30.195312 58.496094 29.550781 C 58.496094 28.90625 57.96875 28.382812 57.320312 28.382812 " fill-opacity="1" fill-rule="nonzero"/></g><path fill="#ffffff" d="M 44.171875 42.613281 L 42.511719 44.265625 L 48.300781 50.019531 C 48.761719 50.472656 49.503906 50.472656 49.964844 50.019531 C 50.421875 49.5625 50.421875 48.824219 49.964844 48.367188 L 44.171875 42.613281 " fill-opacity="1" fill-rule="nonzero"/><path fill="#ffffff" d="M 49.964844 10.734375 C 50.421875 10.277344 50.421875 9.539062 49.964844 9.082031 C 49.503906 8.628906 48.761719 8.628906 48.300781 9.082031 L 42.511719 14.835938 L 44.171875 16.488281 L 49.964844 10.734375 " fill-opacity="1" fill-rule="nonzero"/><g clip-path="url(#1e1c7ab4bd)"><path fill="#ffffff" d="M 9.59375 28.382812 L 1.402344 28.382812 C 0.753906 28.382812 0.230469 28.90625 0.230469 29.550781 C 0.230469 30.195312 0.753906 30.71875 1.402344 30.71875 L 9.59375 30.71875 L 9.59375 28.382812 " fill-opacity="1" fill-rule="nonzero"/></g><path fill="#ffffff" d="M 8.761719 48.367188 C 8.304688 48.824219 8.304688 49.5625 8.761719 50.019531 C 9.222656 50.472656 9.964844 50.472656 10.425781 50.019531 L 16.214844 44.265625 L 14.554688 42.613281 L 8.761719 48.367188 " fill-opacity="1" fill-rule="nonzero"/><path fill="#ffffff" d="M 14.554688 16.488281 L 16.214844 14.835938 L 10.425781 9.082031 C 9.964844 8.628906 9.222656 8.628906 8.761719 9.082031 C 8.304688 9.539062 8.304688 10.277344 8.761719 10.734375 L 14.554688 16.488281 " fill-opacity="1" fill-rule="nonzero"/><path fill="#ffffff" d="M 29.132812 20.007812 C 29.085938 19.328125 28.460938 18.839844 27.785156 18.953125 C 24.640625 19.472656 22.691406 21.039062 21.582031 22.34375 C 20.988281 23.035156 20.566406 23.726562 20.28125 24.289062 C 19.953125 24.941406 20.304688 25.726562 21.015625 25.917969 L 21.046875 25.925781 C 21.574219 26.070312 22.132812 25.820312 22.378906 25.335938 C 23.011719 24.085938 24.617188 21.851562 28.164062 21.257812 C 28.753906 21.160156 29.175781 20.640625 29.136719 20.046875 L 29.132812 20.007812 " fill-opacity="1" fill-rule="nonzero"/><path fill="#ffffff" d="M 35.945312 51.066406 L 22.699219 51.066406 C 22.074219 51.066406 21.566406 51.589844 21.566406 52.234375 C 21.566406 52.878906 22.074219 53.402344 22.699219 53.402344 L 35.945312 53.402344 C 36.574219 53.402344 37.082031 52.878906 37.082031 52.234375 C 37.082031 51.589844 36.574219 51.066406 35.945312 51.066406 " fill-opacity="1" fill-rule="nonzero"/><path fill="#ffffff" d="M 35.945312 54.492188 L 22.699219 54.492188 C 22.074219 54.492188 21.566406 55.015625 21.566406 55.660156 C 21.566406 56.308594 22.074219 56.828125 22.699219 56.828125 L 35.945312 56.828125 C 36.574219 56.828125 37.082031 56.308594 37.082031 55.660156 C 37.082031 55.015625 36.574219 54.492188 35.945312 54.492188 " fill-opacity="1" fill-rule="nonzero"/><g clip-path="url(#834ba562e4)"><path fill="#ffffff" d="M 35.289062 57.921875 L 23.355469 57.921875 C 23.007812 57.921875 22.832031 58.339844 23.078125 58.585938 L 25.058594 60.550781 C 25.636719 61.125 26.378906 61.507812 27.1875 61.632812 C 27.738281 61.722656 28.453125 61.789062 29.324219 61.789062 C 30.195312 61.789062 30.910156 61.722656 31.460938 61.632812 C 32.265625 61.507812 33.011719 61.125 33.589844 60.550781 L 35.566406 58.585938 C 35.8125 58.339844 35.640625 57.921875 35.289062 57.921875 " fill-opacity="1" fill-rule="nonzero"/></g><g fill="#ffffff" fill-opacity="1"><g transform="translate(82.880698, 45.192419)"><g><path d="M 10.734375 0.421875 C 8.941406 0.421875 7.359375 0.113281 5.984375 -0.5 C 4.609375 -1.125 3.519531 -2.007812 2.71875 -3.15625 C 1.925781 -4.3125 1.519531 -5.71875 1.5 -7.375 L 6.21875 -7.375 C 6.269531 -6.238281 6.6875 -5.28125 7.46875 -4.5 C 8.25 -3.71875 9.328125 -3.328125 10.703125 -3.328125 C 11.890625 -3.328125 12.832031 -3.609375 13.53125 -4.171875 C 14.226562 -4.742188 14.578125 -5.507812 14.578125 -6.46875 C 14.578125 -7.46875 14.269531 -8.25 13.65625 -8.8125 C 13.039062 -9.375 12.21875 -9.828125 11.1875 -10.171875 C 10.164062 -10.523438 9.070312 -10.898438 7.90625 -11.296875 C 6.019531 -11.953125 4.578125 -12.789062 3.578125 -13.8125 C 2.585938 -14.832031 2.09375 -16.195312 2.09375 -17.90625 C 2.070312 -19.351562 2.414062 -20.59375 3.125 -21.625 C 3.84375 -22.664062 4.816406 -23.46875 6.046875 -24.03125 C 7.285156 -24.601562 8.707031 -24.890625 10.3125 -24.890625 C 11.945312 -24.890625 13.382812 -24.597656 14.625 -24.015625 C 15.875 -23.441406 16.851562 -22.628906 17.5625 -21.578125 C 18.28125 -20.523438 18.660156 -19.273438 18.703125 -17.828125 L 13.921875 -17.828125 C 13.890625 -18.691406 13.550781 -19.457031 12.90625 -20.125 C 12.269531 -20.789062 11.382812 -21.125 10.25 -21.125 C 9.269531 -21.144531 8.445312 -20.90625 7.78125 -20.40625 C 7.113281 -19.90625 6.78125 -19.175781 6.78125 -18.21875 C 6.78125 -17.40625 7.035156 -16.757812 7.546875 -16.28125 C 8.066406 -15.800781 8.769531 -15.394531 9.65625 -15.0625 C 10.539062 -14.738281 11.550781 -14.390625 12.6875 -14.015625 C 13.90625 -13.597656 15.015625 -13.109375 16.015625 -12.546875 C 17.015625 -11.992188 17.816406 -11.253906 18.421875 -10.328125 C 19.035156 -9.410156 19.34375 -8.226562 19.34375 -6.78125 C 19.34375 -5.5 19.015625 -4.3125 18.359375 -3.21875 C 17.703125 -2.125 16.734375 -1.242188 15.453125 -0.578125 C 14.171875 0.0859375 12.597656 0.421875 10.734375 0.421875 Z M 10.734375 0.421875 "/></g></g></g><g fill="#ffffff" fill-opacity="1"><g transform="translate(103.756131, 45.192419)"><g><path d="M 10 0 C 8.1875 0 6.726562 -0.441406 5.625 -1.328125 C 4.53125 -2.210938 3.984375 -3.785156 3.984375 -6.046875 L 3.984375 -13.609375 L 1.015625 -13.609375 L 1.015625 -17.34375 L 3.984375 -17.34375 L 4.515625 -22 L 8.46875 -22 L 8.46875 -17.34375 L 13.140625 -17.34375 L 13.140625 -13.609375 L 8.46875 -13.609375 L 8.46875 -6.015625 C 8.46875 -5.171875 8.644531 -4.59375 9 -4.28125 C 9.363281 -3.96875 9.988281 -3.8125 10.875 -3.8125 L 13.046875 -3.8125 L 13.046875 0 Z M 10 0 "/></g></g></g><g fill="#ffffff" fill-opacity="1"><g transform="translate(118.47734, 45.192419)"><g><path d="M 8.78125 0.421875 C 6.613281 0.421875 4.941406 -0.253906 3.765625 -1.609375 C 2.585938 -2.960938 2 -4.941406 2 -7.546875 L 2 -17.34375 L 6.4375 -17.34375 L 6.4375 -7.96875 C 6.4375 -6.476562 6.738281 -5.335938 7.34375 -4.546875 C 7.945312 -3.753906 8.898438 -3.359375 10.203125 -3.359375 C 11.441406 -3.359375 12.460938 -3.800781 13.265625 -4.6875 C 14.078125 -5.570312 14.484375 -6.804688 14.484375 -8.390625 L 14.484375 -17.34375 L 18.953125 -17.34375 L 18.953125 0 L 15 0 L 14.65625 -2.9375 C 14.113281 -1.914062 13.335938 -1.097656 12.328125 -0.484375 C 11.316406 0.117188 10.132812 0.421875 8.78125 0.421875 Z M 8.78125 0.421875 "/></g></g></g><g fill="#ffffff" fill-opacity="1"><g transform="translate(139.737423, 45.192419)"><g><path d="M 10.25 0.421875 C 8.613281 0.421875 7.15625 0.0234375 5.875 -0.765625 C 4.59375 -1.554688 3.578125 -2.640625 2.828125 -4.015625 C 2.085938 -5.390625 1.71875 -6.953125 1.71875 -8.703125 C 1.71875 -10.453125 2.085938 -12.007812 2.828125 -13.375 C 3.578125 -14.738281 4.59375 -15.8125 5.875 -16.59375 C 7.15625 -17.375 8.613281 -17.765625 10.25 -17.765625 C 11.550781 -17.765625 12.691406 -17.519531 13.671875 -17.03125 C 14.648438 -16.539062 15.441406 -15.851562 16.046875 -14.96875 L 16.046875 -25.171875 L 20.53125 -25.171875 L 20.53125 0 L 16.546875 0 L 16.046875 -2.484375 C 15.492188 -1.710938 14.753906 -1.035156 13.828125 -0.453125 C 12.910156 0.128906 11.71875 0.421875 10.25 0.421875 Z M 11.1875 -3.5 C 12.632812 -3.5 13.816406 -3.984375 14.734375 -4.953125 C 15.660156 -5.921875 16.125 -7.160156 16.125 -8.671875 C 16.125 -10.179688 15.660156 -11.421875 14.734375 -12.390625 C 13.816406 -13.359375 12.632812 -13.84375 11.1875 -13.84375 C 9.769531 -13.84375 8.59375 -13.363281 7.65625 -12.40625 C 6.726562 -11.457031 6.265625 -10.222656 6.265625 -8.703125 C 6.265625 -7.191406 6.726562 -5.945312 7.65625 -4.96875 C 8.59375 -3.988281 9.769531 -3.5 11.1875 -3.5 Z M 11.1875 -3.5 "/></g></g></g><g fill="#ffffff" fill-opacity="1"><g transform="translate(162.536059, 45.192419)"><g><path d="M 10.703125 0.421875 C 8.953125 0.421875 7.398438 0.0507812 6.046875 -0.6875 C 4.691406 -1.4375 3.628906 -2.488281 2.859375 -3.84375 C 2.097656 -5.195312 1.71875 -6.757812 1.71875 -8.53125 C 1.71875 -10.320312 2.09375 -11.914062 2.84375 -13.3125 C 3.601562 -14.71875 4.65625 -15.8125 6 -16.59375 C 7.34375 -17.375 8.921875 -17.765625 10.734375 -17.765625 C 12.429688 -17.765625 13.929688 -17.390625 15.234375 -16.640625 C 16.546875 -15.898438 17.566406 -14.878906 18.296875 -13.578125 C 19.035156 -12.285156 19.40625 -10.847656 19.40625 -9.265625 C 19.40625 -9.003906 19.398438 -8.734375 19.390625 -8.453125 C 19.378906 -8.179688 19.363281 -7.894531 19.34375 -7.59375 L 6.15625 -7.59375 C 6.25 -6.238281 6.71875 -5.175781 7.5625 -4.40625 C 8.414062 -3.632812 9.453125 -3.25 10.671875 -3.25 C 11.578125 -3.25 12.335938 -3.453125 12.953125 -3.859375 C 13.566406 -4.265625 14.03125 -4.796875 14.34375 -5.453125 L 18.890625 -5.453125 C 18.554688 -4.359375 18.007812 -3.363281 17.25 -2.46875 C 16.5 -1.570312 15.566406 -0.863281 14.453125 -0.34375 C 13.347656 0.164062 12.097656 0.421875 10.703125 0.421875 Z M 10.734375 -14.125 C 9.640625 -14.125 8.671875 -13.816406 7.828125 -13.203125 C 6.992188 -12.585938 6.457031 -11.648438 6.21875 -10.390625 L 14.859375 -10.390625 C 14.785156 -11.523438 14.363281 -12.429688 13.59375 -13.109375 C 12.832031 -13.785156 11.878906 -14.125 10.734375 -14.125 Z M 10.734375 -14.125 "/></g></g></g><g fill="#ffffff" fill-opacity="1"><g transform="translate(183.446461, 45.192419)"><g><path d="M 2.265625 0 L 2.265625 -17.34375 L 6.21875 -17.34375 L 6.578125 -14.40625 C 7.109375 -15.4375 7.878906 -16.253906 8.890625 -16.859375 C 9.910156 -17.460938 11.109375 -17.765625 12.484375 -17.765625 C 14.628906 -17.765625 16.296875 -17.085938 17.484375 -15.734375 C 18.671875 -14.378906 19.265625 -12.398438 19.265625 -9.796875 L 19.265625 0 L 14.796875 0 L 14.796875 -9.375 C 14.796875 -10.863281 14.488281 -12.003906 13.875 -12.796875 C 13.269531 -13.585938 12.328125 -13.984375 11.046875 -13.984375 C 9.785156 -13.984375 8.753906 -13.539062 7.953125 -12.65625 C 7.148438 -11.769531 6.75 -10.535156 6.75 -8.953125 L 6.75 0 Z M 2.265625 0 "/></g></g></g><g fill="#ffffff" fill-opacity="1"><g transform="translate(204.706544, 45.192419)"><g><path d="M 10 0 C 8.1875 0 6.726562 -0.441406 5.625 -1.328125 C 4.53125 -2.210938 3.984375 -3.785156 3.984375 -6.046875 L 3.984375 -13.609375 L 1.015625 -13.609375 L 1.015625 -17.34375 L 3.984375 -17.34375 L 4.515625 -22 L 8.46875 -22 L 8.46875 -17.34375 L 13.140625 -17.34375 L 13.140625 -13.609375 L 8.46875 -13.609375 L 8.46875 -6.015625 C 8.46875 -5.171875 8.644531 -4.59375 9 -4.28125 C 9.363281 -3.96875 9.988281 -3.8125 10.875 -3.8125 L 13.046875 -3.8125 L 13.046875 0 Z M 10 0 "/></g></g></g><g fill="#ffffff" fill-opacity="1"><g transform="translate(230.224414, 45.188823)"><g><path d="M 2.375 0 L 2.375 -24.515625 L 6.859375 -24.515625 L 6.859375 -14.328125 L 17.859375 -14.328125 L 17.859375 -24.515625 L 22.34375 -24.515625 L 22.34375 0 L 17.859375 0 L 17.859375 -10.6875 L 6.859375 -10.6875 L 6.859375 0 Z M 2.375 0 "/></g></g></g><g fill="#ffffff" fill-opacity="1"><g transform="translate(254.935082, 45.188823)"><g><path d="M 8.78125 0.421875 C 6.613281 0.421875 4.941406 -0.253906 3.765625 -1.609375 C 2.585938 -2.960938 2 -4.945312 2 -7.5625 L 2 -17.375 L 6.4375 -17.375 L 6.4375 -7.984375 C 6.4375 -6.492188 6.738281 -5.347656 7.34375 -4.546875 C 7.957031 -3.753906 8.914062 -3.359375 10.21875 -3.359375 C 11.457031 -3.359375 12.476562 -3.800781 13.28125 -4.6875 C 14.09375 -5.570312 14.5 -6.8125 14.5 -8.40625 L 14.5 -17.375 L 18.984375 -17.375 L 18.984375 0 L 15.015625 0 L 14.671875 -2.9375 C 14.128906 -1.914062 13.347656 -1.097656 12.328125 -0.484375 C 11.316406 0.117188 10.132812 0.421875 8.78125 0.421875 Z M 8.78125 0.421875 "/></g></g></g><g fill="#ffffff" fill-opacity="1"><g transform="translate(276.215655, 45.188823)"><g><path d="M 12.578125 0.421875 C 11.265625 0.421875 10.117188 0.175781 9.140625 -0.3125 C 8.160156 -0.800781 7.367188 -1.488281 6.765625 -2.375 L 6.265625 0 L 2.28125 0 L 2.28125 -25.21875 L 6.765625 -25.21875 L 6.765625 -14.875 C 7.316406 -15.644531 8.050781 -16.320312 8.96875 -16.90625 C 9.894531 -17.488281 11.097656 -17.78125 12.578125 -17.78125 C 14.203125 -17.78125 15.65625 -17.382812 16.9375 -16.59375 C 18.226562 -15.800781 19.242188 -14.71875 19.984375 -13.34375 C 20.734375 -11.96875 21.109375 -10.40625 21.109375 -8.65625 C 21.109375 -6.894531 20.734375 -5.332031 19.984375 -3.96875 C 19.242188 -2.601562 18.226562 -1.53125 16.9375 -0.75 C 15.65625 0.03125 14.203125 0.421875 12.578125 0.421875 Z M 11.625 -3.5 C 13.050781 -3.5 14.226562 -3.976562 15.15625 -4.9375 C 16.09375 -5.894531 16.5625 -7.132812 16.5625 -8.65625 C 16.5625 -10.164062 16.09375 -11.410156 15.15625 -12.390625 C 14.226562 -13.367188 13.050781 -13.859375 11.625 -13.859375 C 10.175781 -13.859375 8.988281 -13.375 8.0625 -12.40625 C 7.144531 -11.4375 6.6875 -10.195312 6.6875 -8.6875 C 6.6875 -7.164062 7.144531 -5.921875 8.0625 -4.953125 C 8.988281 -3.984375 10.175781 -3.5 11.625 -3.5 Z M 11.625 -3.5 "/></g></g></g><g clip-path="url(#4e9063cc98)"><path stroke-linecap="butt" transform="matrix(0.00000000130812, -0.749498, 0.74707, 0.00000000130388, 69.161153, 62.182304)" fill="none" stroke-linejoin="miter" d="M -0.00172123 2.00128 L 81.745688 2.00128 " stroke="#ffffff" stroke-width="4" stroke-opacity="1" stroke-miterlimit="4"/></g></svg>