<svg xmlns="http://www.w3.org/2000/svg" xmlns:xlink="http://www.w3.org/1999/xlink" width="430" zoomAndPan="magnify" viewBox="0 0 322.5 161.999997" height="216" preserveAspectRatio="xMidYMid meet" version="1.0"><defs><g/><clipPath id="69c2629bc2"><path d="M 61 4.761719 L 67 4.761719 L 67 26 L 61 26 Z M 61 4.761719 " clip-rule="nonzero"/></clipPath><clipPath id="3453fdaa82"><path d="M 107 66 L 127.492188 66 L 127.492188 71.453125 L 107 71.453125 Z M 107 66 " clip-rule="nonzero"/></clipPath><clipPath id="8387700d8f"><path d="M 49 131 L 78 131 L 78 139.761719 L 49 139.761719 Z M 49 131 " clip-rule="nonzero"/></clipPath></defs><path fill="#ffffff" d="M 85.621094 85.507812 C 77.84375 94.960938 77.84375 103.019531 77.84375 103.019531 L 77.84375 108.488281 L 49.648438 108.488281 L 49.648438 103.019531 C 49.648438 103.019531 49.648438 94.960938 41.871094 85.507812 C 41.871094 85.507812 32.242188 74.269531 37.675781 59.691406 C 42.960938 45.503906 55.3125 41.027344 63.117188 41.03125 C 63.332031 41.03125 63.539062 41.03125 63.746094 41.039062 C 63.953125 41.03125 64.160156 41.03125 64.375 41.03125 C 72.179688 41.03125 84.53125 45.503906 89.820312 59.691406 C 95.25 74.269531 85.621094 85.507812 85.621094 85.507812 Z M 96.59375 70.105469 C 96.777344 65.980469 96.121094 61.871094 94.636719 57.894531 C 93.183594 53.992188 91.171875 50.488281 88.652344 47.484375 C 86.390625 44.785156 83.722656 42.484375 80.726562 40.648438 C 78.089844 39.035156 75.242188 37.804688 72.257812 36.984375 C 69.625 36.265625 66.898438 35.882812 64.375 35.882812 C 64.164062 35.882812 63.953125 35.886719 63.746094 35.890625 C 63.539062 35.886719 63.328125 35.882812 63.117188 35.882812 C 60.59375 35.882812 57.867188 36.265625 55.234375 36.984375 C 52.25 37.804688 49.402344 39.035156 46.765625 40.648438 C 43.769531 42.484375 41.101562 44.78125 38.839844 47.484375 C 36.324219 50.488281 34.308594 53.992188 32.855469 57.894531 C 31.371094 61.871094 30.714844 65.980469 30.898438 70.105469 C 31.046875 73.390625 31.726562 76.671875 32.917969 79.867188 C 34.832031 85.007812 37.457031 88.253906 37.921875 88.808594 C 41.386719 93.023438 43.007812 96.84375 43.753906 99.308594 C 44.4375 101.546875 44.503906 103.007812 44.503906 103.019531 L 44.503906 109.945312 C 44.503906 111.980469 46.15625 113.632812 48.191406 113.632812 L 79.300781 113.632812 C 81.339844 113.632812 82.988281 111.980469 82.988281 109.945312 L 82.988281 103.074219 C 82.996094 102.898438 83.085938 101.296875 83.878906 98.863281 C 84.644531 96.5 86.257812 92.839844 89.570312 88.808594 C 90.035156 88.253906 92.660156 85.007812 94.578125 79.867188 C 95.769531 76.671875 96.445312 73.390625 96.59375 70.105469 " fill-opacity="1" fill-rule="nonzero"/><g clip-path="url(#69c2629bc2)"><path fill="#ffffff" d="M 66.316406 7.417969 C 66.316406 5.996094 65.167969 4.84375 63.746094 4.84375 C 62.324219 4.84375 61.175781 5.996094 61.175781 7.417969 L 61.175781 25.351562 L 66.316406 25.351562 L 66.316406 7.417969 " fill-opacity="1" fill-rule="nonzero"/></g><g clip-path="url(#3453fdaa82)"><path fill="#ffffff" d="M 124.921875 66.058594 L 107 66.058594 L 107 71.203125 L 124.921875 71.203125 C 126.339844 71.203125 127.492188 70.050781 127.492188 68.632812 C 127.492188 67.210938 126.339844 66.058594 124.921875 66.058594 " fill-opacity="1" fill-rule="nonzero"/></g><path fill="#ffffff" d="M 96.148438 97.414062 L 92.511719 101.054688 L 105.183594 113.734375 C 106.1875 114.738281 107.816406 114.738281 108.820312 113.734375 C 109.828125 112.730469 109.828125 111.097656 108.820312 110.09375 L 96.148438 97.414062 " fill-opacity="1" fill-rule="nonzero"/><path fill="#ffffff" d="M 108.820312 27.167969 C 109.828125 26.164062 109.828125 24.53125 108.820312 23.527344 C 107.816406 22.523438 106.1875 22.523438 105.183594 23.527344 L 92.511719 36.207031 L 96.148438 39.847656 L 108.820312 27.167969 " fill-opacity="1" fill-rule="nonzero"/><path fill="#ffffff" d="M 20.492188 66.058594 L 2.570312 66.058594 C 1.152344 66.058594 0 67.210938 0 68.632812 C 0 70.050781 1.152344 71.203125 2.570312 71.203125 L 20.492188 71.203125 L 20.492188 66.058594 " fill-opacity="1" fill-rule="nonzero"/><path fill="#ffffff" d="M 18.671875 110.09375 C 17.667969 111.097656 17.667969 112.730469 18.671875 113.734375 C 19.675781 114.738281 21.304688 114.738281 22.308594 113.734375 L 34.980469 101.054688 L 31.34375 97.414062 L 18.671875 110.09375 " fill-opacity="1" fill-rule="nonzero"/><path fill="#ffffff" d="M 31.34375 39.847656 L 34.980469 36.207031 L 22.308594 23.527344 C 21.304688 22.523438 19.675781 22.523438 18.671875 23.527344 C 17.667969 24.53125 17.667969 26.164062 18.671875 27.167969 L 31.34375 39.847656 " fill-opacity="1" fill-rule="nonzero"/><path fill="#ffffff" d="M 63.242188 47.605469 C 63.144531 46.109375 61.769531 45.03125 60.289062 45.277344 C 53.410156 46.425781 49.152344 49.875 46.71875 52.746094 C 45.417969 54.277344 44.503906 55.792969 43.878906 57.035156 C 43.15625 58.46875 43.925781 60.207031 45.480469 60.625 L 45.550781 60.644531 C 46.707031 60.957031 47.925781 60.414062 48.46875 59.339844 C 49.851562 56.589844 53.367188 51.664062 61.125 50.359375 C 62.414062 50.140625 63.335938 48.992188 63.25 47.6875 L 63.242188 47.605469 " fill-opacity="1" fill-rule="nonzero"/><path fill="#ffffff" d="M 78.152344 116.042969 L 49.167969 116.042969 C 47.796875 116.042969 46.6875 117.195312 46.6875 118.613281 C 46.6875 120.035156 47.796875 121.1875 49.167969 121.1875 L 78.152344 121.1875 C 79.523438 121.1875 80.636719 120.035156 80.636719 118.613281 C 80.636719 117.195312 79.523438 116.042969 78.152344 116.042969 " fill-opacity="1" fill-rule="nonzero"/><path fill="#ffffff" d="M 78.152344 123.597656 L 49.167969 123.597656 C 47.796875 123.597656 46.6875 124.75 46.6875 126.171875 C 46.6875 127.59375 47.796875 128.746094 49.167969 128.746094 L 78.152344 128.746094 C 79.523438 128.746094 80.636719 127.59375 80.636719 126.171875 C 80.636719 124.75 79.523438 123.597656 78.152344 123.597656 " fill-opacity="1" fill-rule="nonzero"/><g clip-path="url(#8387700d8f)"><path fill="#ffffff" d="M 76.714844 131.152344 L 50.605469 131.152344 C 49.839844 131.152344 49.460938 132.074219 50 132.617188 L 54.324219 136.945312 C 55.589844 138.210938 57.21875 139.050781 58.984375 139.332031 C 60.191406 139.523438 61.753906 139.675781 63.660156 139.675781 C 65.570312 139.675781 67.128906 139.523438 68.335938 139.332031 C 70.101562 139.050781 71.730469 138.210938 72.996094 136.945312 L 77.320312 132.617188 C 77.863281 132.074219 77.480469 131.152344 76.714844 131.152344 " fill-opacity="1" fill-rule="nonzero"/></g><g fill="#ffffff" fill-opacity="1"><g transform="translate(172.681566, 111.176506)"><g><path d="M 30 1.171875 C 24.976562 1.171875 20.546875 0.3125 16.703125 -1.40625 C 12.859375 -3.132812 9.828125 -5.609375 7.609375 -8.828125 C 5.398438 -12.054688 4.265625 -15.984375 4.203125 -20.609375 L 17.390625 -20.609375 C 17.523438 -17.421875 18.679688 -14.734375 20.859375 -12.546875 C 23.035156 -10.367188 26.046875 -9.28125 29.890625 -9.28125 C 33.210938 -9.28125 35.851562 -10.078125 37.8125 -11.671875 C 39.769531 -13.265625 40.75 -15.398438 40.75 -18.078125 C 40.75 -20.878906 39.882812 -23.0625 38.15625 -24.625 C 36.425781 -26.1875 34.128906 -27.453125 31.265625 -28.421875 C 28.398438 -29.398438 25.335938 -30.445312 22.078125 -31.5625 C 16.804688 -33.382812 12.785156 -35.726562 10.015625 -38.59375 C 7.242188 -41.457031 5.859375 -45.269531 5.859375 -50.03125 C 5.796875 -54.0625 6.753906 -57.523438 8.734375 -60.421875 C 10.722656 -63.328125 13.441406 -65.578125 16.890625 -67.171875 C 20.347656 -68.765625 24.328125 -69.5625 28.828125 -69.5625 C 33.378906 -69.5625 37.394531 -68.742188 40.875 -67.109375 C 44.363281 -65.484375 47.101562 -63.207031 49.09375 -60.28125 C 51.082031 -57.351562 52.140625 -53.867188 52.265625 -49.828125 L 38.890625 -49.828125 C 38.816406 -52.234375 37.882812 -54.363281 36.09375 -56.21875 C 34.3125 -58.082031 31.820312 -59.015625 28.625 -59.015625 C 25.894531 -59.078125 23.597656 -58.40625 21.734375 -57 C 19.878906 -55.601562 18.953125 -53.570312 18.953125 -50.90625 C 18.953125 -48.625 19.664062 -46.816406 21.09375 -45.484375 C 22.53125 -44.148438 24.484375 -43.023438 26.953125 -42.109375 C 29.429688 -41.203125 32.269531 -40.222656 35.46875 -39.171875 C 38.851562 -38.003906 41.945312 -36.640625 44.75 -35.078125 C 47.550781 -33.515625 49.796875 -31.445312 51.484375 -28.875 C 53.179688 -26.300781 54.03125 -22.992188 54.03125 -18.953125 C 54.03125 -15.367188 53.117188 -12.046875 51.296875 -8.984375 C 49.472656 -5.921875 46.769531 -3.460938 43.1875 -1.609375 C 39.601562 0.242188 35.207031 1.171875 30 1.171875 Z M 30 1.171875 "/></g></g></g><g fill="#ffffff" fill-opacity="1"><g transform="translate(230.998449, 111.176506)"><g><path d="M 6.640625 0 L 6.640625 -68.390625 L 19.15625 -68.390625 L 19.15625 -39.953125 L 49.828125 -39.953125 L 49.828125 -68.390625 L 62.328125 -68.390625 L 62.328125 0 L 49.828125 0 L 49.828125 -29.796875 L 19.15625 -29.796875 L 19.15625 0 Z M 6.640625 0 "/></g></g></g><path stroke-linecap="butt" transform="matrix(0, -0.750197, 0.75, 0, 145.674249, 139.486529)" fill="none" stroke-linejoin="miter" d="M -0.00233613 6.002044 L 177.961227 6.002044 " stroke="#ffffff" stroke-width="12" stroke-opacity="1" stroke-miterlimit="4"/></svg>